<?xml version="1.0" standalone="no"?>
<!DOCTYPE svg PUBLIC "-//W3C//DTD SVG 20010904//EN"
 "http://www.w3.org/TR/2001/REC-SVG-20010904/DTD/svg10.dtd">
<svg version="1.0" xmlns="http://www.w3.org/2000/svg"
 width="700.000000pt" height="700.000000pt" viewBox="0 0 700.000000 700.000000"
 preserveAspectRatio="xMidYMid meet">
<metadata>
Created by potrace 1.14, written by Peter Selinger 2001-2017
</metadata>
<g transform="translate(0.000000,700.000000) scale(0.100000,-0.100000)"
fill="#000000" stroke="none">
<path d="M1818 6789 c-124 -18 -230 -81 -291 -171 -71 -104 -78 -220 -27 -424
17 -66 32 -126 34 -135 3 -9 9 -33 14 -52 9 -31 8 -37 -6 -41 -20 -5 -220 -2
-607 9 -531 15 -581 12 -609 -43 -22 -44 -30 -178 -41 -732 -8 -409 -16 -736
-20 -915 -3 -99 -7 -319 -10 -490 -3 -170 -7 -404 -10 -520 -7 -255 -13 -531
-20 -930 -3 -165 -8 -374 -10 -465 -14 -528 -18 -709 -19 -925 -2 -337 -23
-317 354 -330 182 -6 438 -12 870 -21 157 -3 359 -7 450 -9 91 -2 289 -6 440
-9 151 -3 376 -8 500 -11 249 -6 515 -12 900 -20 682 -14 695 -14 1360 -30 80
-2 203 -4 273 -5 l128 -2 39 40 39 40 6 223 c4 123 7 254 8 291 2 74 3 75 37
82 14 3 84 21 155 41 72 19 198 53 280 75 83 21 220 58 305 80 200 53 350 97
416 121 40 15 56 27 67 52 20 43 15 87 -40 297 -24 96 -46 182 -48 190 -2 8
-21 80 -43 160 -22 80 -76 285 -122 455 -45 171 -130 492 -190 715 -60 223
-120 450 -135 505 -15 55 -38 141 -51 190 -14 50 -26 97 -29 106 -5 22 -117
439 -166 621 -22 81 -42 155 -43 165 -2 10 -11 43 -20 74 -9 31 -19 65 -21 75
-4 17 -71 267 -124 464 -11 41 -45 170 -76 285 -150 562 -203 744 -220 768 -8
11 -30 25 -50 31 -46 16 -44 17 -450 -91 -176 -47 -376 -100 -445 -118 -69
-19 -242 -65 -385 -103 -143 -39 -413 -111 -600 -161 -187 -50 -407 -109 -490
-132 -182 -49 -151 -41 -320 -84 -128 -34 -148 -36 -234 -31 -52 3 -98 9 -102
13 -4 5 -33 103 -64 218 -65 242 -109 384 -135 435 -23 45 -104 122 -158 149
-59 30 -159 42 -244 30z m132 -249 c22 -11 46 -30 54 -43 14 -20 140 -454 151
-519 l5 -28 -152 4 c-93 1 -162 7 -175 15 -15 7 -28 30 -37 64 -56 201 -90
353 -87 390 3 49 48 93 126 124 44 17 71 15 115 -7z m3380 -182 c6 -24 16 -59
21 -78 12 -41 40 -146 75 -277 13 -51 24 -100 24 -108 0 -16 -21 -16 -770 0
-124 2 -412 7 -640 11 -361 5 -458 8 -517 13 -7 1 -13 5 -13 9 0 5 6 9 13 9
30 1 101 20 682 175 716 191 782 208 940 249 83 21 155 38 162 39 7 0 17 -19
23 -42z m-4425 -623 c121 -3 321 -7 445 -10 818 -17 814 -17 862 -24 19 -3 33
-48 154 -511 33 -125 46 -176 60 -240 2 -14 9 -40 14 -59 11 -42 -8 -89 -53
-127 -27 -23 -38 -26 -84 -22 -31 3 -61 12 -72 22 -29 26 -57 100 -112 294
-86 302 -100 334 -160 347 -38 8 -90 -9 -119 -40 -17 -18 -23 -36 -22 -67 1
-71 112 -493 155 -590 28 -62 107 -146 163 -173 98 -47 216 -53 316 -15 142
53 250 224 235 370 -6 51 -67 315 -87 370 -23 67 -110 421 -105 430 5 9 108 8
745 -5 283 -5 687 -15 865 -20 151 -5 549 -13 955 -20 260 -5 337 -9 348 -20
3 -2 4 -111 2 -242 -2 -247 -4 -361 -14 -723 -6 -209 -9 -339 -21 -950 -4
-162 -8 -367 -10 -455 -2 -88 -7 -297 -10 -465 -3 -168 -8 -377 -10 -465 -2
-88 -7 -248 -9 -355 -3 -107 -8 -348 -11 -535 -8 -454 -13 -613 -20 -646 l-6
-27 -97 3 c-53 2 -224 6 -380 10 -156 3 -347 8 -425 10 -78 2 -284 7 -457 10
-522 10 -735 14 -955 20 -115 3 -325 7 -465 10 -140 3 -358 8 -485 10 -313 8
-555 13 -1395 30 -91 2 -172 4 -181 4 -13 1 -15 27 -13 213 2 218 13 847 19
1063 2 66 6 246 10 400 3 154 8 345 10 425 2 80 6 298 10 485 3 187 8 405 10
485 10 379 16 654 20 855 8 408 20 876 24 941 1 7 26 9 69 8 37 -2 166 -6 287
-9z m4803 -777 c24 -95 75 -290 114 -433 38 -143 76 -287 84 -320 9 -33 19
-73 23 -90 46 -168 261 -970 287 -1070 19 -71 39 -144 45 -161 5 -17 11 -40
14 -50 4 -22 37 -149 125 -479 153 -572 170 -646 156 -650 -65 -22 -588 -165
-656 -180 -8 -2 -84 -22 -168 -45 -85 -23 -156 -39 -159 -36 -5 5 -5 134 2
336 3 94 13 542 20 915 3 132 7 326 10 430 5 208 13 558 20 870 2 110 7 331
11 490 7 299 11 501 13 593 1 28 4 52 9 52 4 0 27 -78 50 -172z"/>
</g>
</svg>
