<svg xmlns="http://www.w3.org/2000/svg" width="682.667" height="682.667" version="1.0" viewBox="0 0 512 512">
  <path d="M127.2 16.6c-6.8 2.4-11.1 5.3-14.8 10.2-6.5 8.5-6.9 17.5-1.5 37 1.7 6.2 3.1 11.5 3.1 11.8 0 .5-26.5.1-66-1.2-18.7-.6-21.9-.1-24.4 3.8-1.5 2.4-2 14-3.1 69.8-.3 15.1-.7 35.8-1 46-.3 10.2-.7 32-1 48.5-.3 16.5-.7 38.3-1 48.5-.3 10.2-.7 31.1-1 46.5-.3 15.4-.7 36.5-1 47-1.8 71.4-1.8 74.4-.1 77 1 1.4 2.7 3 3.9 3.4 2.3.9 25 1.7 71.7 2.6 15.1.3 36.1.7 46.5 1 10.5.3 31.2.7 46 1 14.9.3 35.8.7 46.5 1 10.7.3 31.9.7 47 1 15.1.3 35.8.7 46 1 10.2.3 31.6.8 47.7 1.1l29.2.6 3.1-3 3-3 .2-12.9c0-7 .2-13.3.3-13.8.2-.6.3-4.4.4-8.6l.1-7.5 42.8-11.4c43.1-11.4 46.8-12.6 49.2-15.5 2.2-2.6 1.4-7.4-5.6-33.3-3.6-13.6-14.2-53.3-23.5-88.2-9.4-34.9-24-89.6-32.5-121.5-8.6-31.9-19.6-73.1-24.5-91.5-4.9-18.4-9.4-34.5-10.1-35.8-1.5-2.9-4.4-4.5-7.8-4.4-1.4.1-10.8 2.3-21 5.1-15 4-137.7 36.8-174.9 46.8-8 2.1-10.4 2.4-16 1.6l-6.5-.8-5.9-22c-3.7-14.1-6.8-23.6-8.5-26.5-3.3-5.3-9.8-10.5-15-12-5.3-1.4-15-1.2-20 .6zm15.3 16.8c1.8.8 3.9 2.4 4.5 3.6 1 1.8 11 37.8 11 39.4 0 .3-5.5.4-12.2.2-9.3-.2-12.4-.6-13-1.7-1.7-3-8.5-30.9-8.1-33.3.7-3.2 5-7.2 9.3-8.4 4.8-1.4 4.6-1.4 8.5.2zM394 62.2c2.7 10 5 18.7 5 19.2s-8.7.6-19.7.2c-10.9-.3-39.4-.9-63.3-1.2-55.5-.8-58.8-.9-59.7-1.7-.3-.4.2-.7 1.3-.7 1 0 30.9-7.8 66.4-17.4 35.5-9.5 64.6-17.2 64.8-17 .2.1 2.5 8.5 5.2 18.6zM115.5 93.6c46.7.8 46.7.8 47.7 2.5 1.2 2.3 15.8 58.2 15.8 60.8 0 1.3-1.5 3.8-3.3 5.6-2.9 2.9-3.9 3.3-7.3 3-6.5-.6-8.3-3.8-13.9-25.1-2.7-10.2-5.7-19.6-6.7-20.9-3.7-4.7-11.5-3.9-14.4 1.6-1.3 2.6-1.1 4.1 3 20.1 5.7 22 7.2 26.4 10.7 31.3 4.2 5.6 9.8 9.1 17.1 10.4 14.9 2.8 28.5-6.5 31.9-21.5 1.4-6.4 1-8.4-8.1-42.2-3.3-12.2-6-22.7-6-23.3 0-.8 5.7-.9 19.3-.5 10.5.3 33.6.8 51.2 1.1 17.6.3 36.7.7 42.5 1 5.8.3 29 .8 51.5 1.2 22.6.3 42.1.7 43.5.8 1.4.2 3.3.3 4.4.4 1.8.1 1.8 1.3 1.2 31.8-.3 17.5-.8 37.9-1.1 45.3-.3 7.4-.7 28.1-1 46-.3 17.9-.8 39-1 47-.2 8-.7 28.9-1 46.5-.3 17.6-.7 36.5-1 42-.3 5.5-.7 28.4-1 51-.4 22.6-.9 42.3-1.2 43.9l-.5 2.8-24.7-.6c-54.2-1.4-64.8-1.6-94.1-2.1-16.8-.3-37.2-.7-45.5-1-8.2-.3-29.8-.7-48-1-18.1-.3-38.2-.8-44.5-1-6.3-.2-29.5-.7-51.5-1.1-22-.4-41.6-.7-43.5-.8l-3.5-.2v-10.9c0-13.7 1.4-84.3 2-102.5.2-7.4.7-25.9 1-41 1.2-63.2 1.6-80.2 2-92.5.3-7.2.8-30.1 1.1-51 .4-20.9.8-39.8.9-42 .2-2.2.4-6.9.4-10.4l.1-6.4 19.8.7c10.8.3 35.9.8 55.7 1.2zm299.7 46.6c.3 1.8 9.8 38.2 21.2 80.8 40.8 152 44.3 165.5 43.7 166.1-.3.4-16.1 4.8-35.1 9.8-19 5.1-35.3 9.4-36.3 9.7-1.7.5-1.8-.2-1.3-12.3.3-7 .8-25.4 1.1-40.8 1.1-56.4 1.5-78.3 2-93 .3-8.3.7-31 1.1-50.5.3-19.5.8-37.8.9-40.5.2-2.8.4-11.4.4-19.3.1-8.1.5-14.1 1-13.8.5.3 1.1 2 1.3 3.8z"/>
</svg>
